# xmcd
#
# Track frame offsets: 
#        150
#        16452
#        30840
#        45005
#        56055
#        77812
#        98980
#        112100
#        139612
#        154232
#        173695
#        191295
#        209630
#        228737
#        246345
#        260797
#        274250
#        287507
#        304690
#        319247
#
# Disc length: 4674 seconds
#
# Revision: 13
# Processed by: cddbd v1.5.2PL0 Copyright (c) Steve Scherf et al.
# Submitted via: ExactAudioCopyFreeDBPlugin 1.0
#
DISCID=1b124014
DTITLE=The Temptations - The Temptations:  Emperors of Soul [box set]
DYEAR=1994
DGENRE=Soul
TTITLE0=Cloud Nine
TTITLE1=Why Did She Have to Leave Me (Why Did She Have to Go)
TTITLE2=I'm Gonna Make You Love Me (group duet with Diana Ross and The
TTITLE2=Supremes)
TTITLE3=I'll Try Something New (group duet with Diana Ross and The Sup
TTITLE3=remes)
TTITLE4=Runaway Child Running Wild
TTITLE5=Don't Let the Joneses Get You Down
TTITLE6=I Can't Get Next to You
TTITLE7=Message from a Black Man
TTITLE8=War
TTITLE9=Psychedelic Shack
TTITLE10=Hum Along and Dance
TTITLE11=Ball of Confusion (That's What the World is Today)
TTITLE12=Ungena zá Ulimwengu (Unite the World)
TTITLE13=Just My Imagination (Running Away with Me)
TTITLE14=Take a Look Around
TTITLE15=It's Summer
TTITLE16=Superstar (Remember How You Got Where You Are)
TTITLE17=I Ain't Got Nothin'
TTITLE18=Mother Nature
TTITLE19=Papa Was a Rolling Stone
EXTD=
EXTT0=
EXTT1=
EXTT2=
EXTT3=
EXTT4=
EXTT5=
EXTT6=
EXTT7=
EXTT8=
EXTT9=
EXTT10=
EXTT11=
EXTT12=
EXTT13=
EXTT14=
EXTT15=
EXTT16=
EXTT17=
EXTT18=
EXTT19=
PLAYORDER=
